<svg width="284" height="294" viewBox="0 0 284 294" fill="none" xmlns="http://www.w3.org/2000/svg">
<path d="M123.8 11.6264C131.057 -3.51397 152.613 -3.51395 159.87 11.6264L281.249 264.855C287.612 278.131 277.936 293.499 263.214 293.499H164.399C178.608 278.467 196.606 267.172 216.823 260.998L225 258.499L216.823 256.002C183.524 245.833 156.244 221.769 142 189.999C127.756 221.769 100.476 245.833 67.1776 256.002L58.9999 258.499L67.1776 260.998C87.3942 267.172 105.391 278.467 119.6 293.499H20.4569C5.7347 293.499 -3.94168 278.131 2.42178 264.855L123.8 11.6264Z" fill="white"/>
</svg>
