<?xml version="1.0" encoding="UTF-8"?>
<svg width="600mm" height="300mm" version="1.1" viewBox="0 0 600 300" xmlns="http://www.w3.org/2000/svg" xmlns:xlink="http://www.w3.org/1999/xlink"><g stroke-width="0"><rect y="-1.95e-14" width="600" height="300" fill="#5f5f5f" style="paint-order:fill markers stroke"/><circle cx="300" cy="150" r="221" fill="#727272" style="paint-order:fill markers stroke"/><path transform="matrix(.746 0 0 .746 144 98)" d="m209 239c78 0 74.2-146 0-170-74.2-24.1-163 91.4-99.7 137 63.1 45.9 146-74.1 99.7-137-45.9-63.1-185-21.8-161 52.4 24.1 74.2 161 25.6 161-52.4-1e-5 -78-137-127-161-52.4-24.1 74.2 115 116 161 52.4 45.9-63.1-36.6-183-99.7-137-63.1 45.9 25.5 161 99.7 137 74.2-24.1 78-170-1e-5 -170s-74.2 146 1e-5 170c74.2 24.1 163-91.4 99.7-137-63.1-45.9-146 74.1-99.7 137 45.9 63.1 185 21.8 161-52.4-24.1-74.2-161-25.6-161 52.4 0 78 137 127 161 52.4 24.1-74.2-115-116-161-52.4-45.9 63.1 36.6 183 99.7 137 63.1-45.9-25.5-161-99.7-137-74.2 24.1-78 170 0 170z" fill="#fff" style="paint-order:fill markers stroke"/><path d="m291 67.9c-0.124 6.74e-4 -0.245 0.01-0.361 0.0284-7.44 1.18-19.3 42.6-24.6 47.9s-46.7 17.1-47.9 24.6c-1.18 7.44 34.5 31.5 37.9 38.2 3.42 6.71 1.87 49.7 8.58 53.1s40.6-23.1 48-24.3c7.44-1.18 47.9 13.6 53.2 8.26s-9.44-45.7-8.26-53.2c1.18-7.44 27.7-41.3 24.3-48-3.42-6.71-46.4-5.16-53.1-8.58-6.61-3.37-30-38-37.8-38z" fill="#727272" style="paint-order:fill markers stroke"/></g></svg>
